<svg width="556" height="354" viewBox="0 0 556 354" fill="none" xmlns="http://www.w3.org/2000/svg">
<g id="error">
<g id="Group 4">
<path id="Vector" d="M362 223C362 176.608 324.392 139 278 139C231.608 139 194 176.608 194 223C194 269.392 231.608 307 278 307C324.392 307 362 269.392 362 223Z" fill="#F8C38A"/>
<path id="Vector_2" d="M278 231C278 207.804 259.196 189 236 189C212.804 189 194 207.804 194 231C194 254.196 212.804 273 236 273C259.196 273 278 254.196 278 231Z" fill="#282F40"/>
</g>
<g id="Group 3">
<path id="Vector_3" d="M131 117L131 307L171 307L171 117L131 117Z" fill="#F8C38A"/>
<path id="Vector_4" d="M17 46L17 216L57 216L57 46L17 46Z" fill="#F8C38A"/>
<path id="Vector_5" d="M17 216L171 216L171 176L17 176L17 216Z" fill="#F8C38A"/>
</g>
<g id="Group 5">
<path id="Vector_6" d="M498 117L498 307L538 307L538 117L498 117Z" fill="#F8C38A"/>
<path id="Vector_7" d="M384 46L384 216L424 216L424 46L384 46Z" fill="#F8C38A"/>
<path id="Vector_8" d="M384 216L538 216L538 176L384 176L384 216Z" fill="#F8C38A"/>
</g>
</g>
</svg>
