<svg width="164" height="528" viewBox="0 0 164 528" fill="none" xmlns="http://www.w3.org/2000/svg">
<g id="icons" clip-path="url(#clip0)">
<g id="Group 1">
<path id="Vector" d="M0.252521 264.217L0.252533 528L27.7257 528L27.7257 264.217L0.252521 264.217Z" fill="#F8C38A"/>
<path id="Vector_2" d="M163.993 264.217C163.993 219.938 127.339 184.043 82.1228 184.043C36.9071 184.043 0.252428 219.938 0.25243 264.217C0.252432 308.496 36.9071 344.392 82.1228 344.392C127.339 344.392 163.993 308.496 163.993 264.217Z" fill="#F8C38A"/>
<path id="Vector_3" d="M136.52 264.217C136.52 234.217 112.166 209.897 82.1229 209.897C52.0801 209.897 27.7257 234.217 27.7257 264.217C27.7257 294.217 52.0801 318.537 82.1229 318.537C112.166 318.537 136.52 294.217 136.52 264.217Z" fill="#282F40"/>
</g>
<g id="Group 2">
<path id="Vector_4" d="M136.268 -1.52588e-05L136.268 263.783L163.741 263.783L163.741 -1.6458e-05L136.268 -1.52588e-05Z" fill="#F8C38A"/>
<path id="Vector_5" d="M163.741 263.783C163.741 219.504 127.086 183.608 81.8704 183.608C36.6546 183.608 -5.44775e-06 219.504 -3.5095e-06 263.783C-1.57126e-06 308.062 36.6546 343.957 81.8704 343.957C127.086 343.957 163.741 308.062 163.741 263.783Z" fill="#F8C38A"/>
<path id="Vector_6" d="M136.268 263.783C136.268 233.782 111.913 209.463 81.8703 209.463C51.8276 209.463 27.4731 233.782 27.4731 263.783C27.4731 293.783 51.8276 318.103 81.8703 318.103C111.913 318.103 136.268 293.783 136.268 263.783Z" fill="#282F40"/>
</g>
</g>
<defs>
<clipPath id="clip0">
<rect width="163.99" height="528" fill="white"/>
</clipPath>
</defs>
</svg>
